<svg width="18" height="18" viewBox="0 0 18 18" fill="none" xmlns="http://www.w3.org/2000/svg">
<path d="M5.22733 0.802322L2.11542 7.49922C2.07237 7.59476 2.05572 7.69847 2.06693 7.80125C2.07813 7.90401 2.11686 8.0027 2.17968 8.08864C2.24251 8.17458 2.32752 8.24513 2.42725 8.29409C2.52697 8.34305 2.63837 8.36893 2.75163 8.36944H6.29512L3.52897 17.1977L15.7249 6.93169C15.8235 6.84497 15.8918 6.73347 15.9209 6.61134C15.9499 6.48923 15.9385 6.36198 15.8882 6.24575C15.8378 6.12953 15.7506 6.0296 15.6379 5.95861C15.525 5.88763 15.3917 5.8488 15.2546 5.84706H11.6446L14.4108 0.802322H5.22733Z" stroke="#790000" stroke-width="1.5" stroke-linecap="round" stroke-linejoin="round"/>
</svg>
