<svg width="18" height="18" viewBox="0 0 18 18" fill="none" xmlns="http://www.w3.org/2000/svg">
<path fill-rule="evenodd" clip-rule="evenodd" d="M10.1964 1.70021C9.76173 1.5191 9.2927 1.66391 9.05437 2.02034L9.04981 2.02706C8.71688 2.5252 8.31203 3.15606 7.89469 3.8649C7.86275 3.94962 7.81689 4.02752 7.75992 4.09581C7.4356 4.6565 7.1076 5.26032 6.80343 5.88198C6.05221 7.41721 5.48998 8.97468 5.42559 10.2299L5.42485 10.2427C5.38843 10.9553 5.36546 11.6374 5.3522 12.2761C5.32333 13.6684 5.34071 14.8528 5.36574 15.6951C5.37862 16.1289 5.39353 16.4715 5.40515 16.7049C5.41096 16.8215 5.41594 16.9107 5.41943 16.9703L5.42348 17.0371L5.42451 17.0532L5.42476 17.0569C5.45439 17.4997 5.11953 17.8834 4.67674 17.9131C4.23393 17.9428 3.85091 17.6079 3.82125 17.1651L3.8211 17.1627L3.82075 17.1575L3.81952 17.1381L3.81505 17.0645C3.81129 17.0004 3.80604 16.9064 3.8 16.7847C3.78789 16.5416 3.77254 16.1882 3.75931 15.7428C3.73363 14.8785 3.71587 13.6666 3.74541 12.2428C3.7487 12.0839 3.75259 11.9223 3.75712 11.7582C3.1663 10.3637 2.89804 8.61479 2.78408 6.98883C2.66512 5.29172 2.7098 3.65197 2.77162 2.53923C2.8403 1.30284 3.78903 0.345861 4.97364 0.180004C6.02741 0.0324633 7.02053 0.53274 7.55403 1.37468C7.61053 1.28882 7.66541 1.20614 7.71842 1.12686L7.72404 1.11857C8.41381 0.0957817 9.7134 -0.24211 10.8145 0.216694C12.1671 0.780269 12.7955 2.34282 12.2097 3.68593L12.2021 3.70277L10.9733 6.52007C12.2998 6.73703 13.5568 7.42131 14.4733 8.54629C14.9118 9.08455 15.0759 9.79585 15.0368 10.4347C15.0119 10.8424 14.8999 11.2781 14.6728 11.6611C15.4818 12.3014 15.8231 13.414 15.4399 14.4311C15.0957 15.345 14.5117 16.1826 13.7054 16.8395C13.1087 17.3256 12.4416 17.6719 11.7451 17.8811C11.3201 18.0086 10.8721 17.7675 10.7444 17.3425C10.6168 16.9174 10.8579 16.4694 11.283 16.3418C11.7812 16.1922 12.2598 15.9443 12.6903 15.5935C13.2705 15.1208 13.689 14.5201 13.936 13.8646C14.0976 13.4357 13.8808 12.9569 13.4519 12.7954C13.328 12.7487 13.2021 12.7338 13.0811 12.7454C13.0581 12.7477 13.0352 12.7489 13.0124 12.7491C12.791 12.8293 12.6069 13.0014 12.5182 13.2371C12.3718 13.6256 12.1242 13.9818 11.7774 14.2642C10.7339 15.1143 9.19884 14.9576 8.34873 13.9141C7.49863 12.8706 7.65538 11.3356 8.69888 10.4855C9.74236 9.63535 11.2774 9.79212 12.1275 10.8356C12.3092 11.0586 12.5825 11.1635 12.852 11.1375C12.8749 11.1353 12.8976 11.1341 12.9203 11.1339C13.0042 11.1032 13.0851 11.058 13.1597 10.9973C13.2877 10.8929 13.4126 10.6652 13.4326 10.3366C13.4527 10.0095 13.3586 9.72254 13.2273 9.56137C12.3841 8.52642 11.1407 8.00979 9.89945 8.05467L9.88073 8.0571C9.74978 8.07262 9.50604 8.11254 9.24129 8.17892C8.96862 8.24728 8.72371 8.33147 8.56129 8.41944C8.17107 8.63081 7.68337 8.48582 7.472 8.09559C7.26063 7.70537 7.40562 7.21767 7.79584 7.00629C8.22928 6.77151 8.78802 6.62307 9.21167 6.53906L10.7364 3.04335L10.742 3.03074C10.9594 2.5136 10.7158 1.91664 10.1964 1.70021ZM6.33899 3.34268V2.61111C6.24976 2.07039 5.74429 1.69492 5.19648 1.77162C4.73014 1.83692 4.40008 2.20026 4.37629 2.62836C4.31656 3.70354 4.27472 5.2706 4.38729 6.87645C4.39894 7.04263 4.41219 7.20844 4.42716 7.37346C4.69019 6.62344 5.01585 5.87859 5.35984 5.1756C5.67272 4.53617 6.00793 3.91723 6.33899 3.34268ZM9.59473 12.8991C9.30523 12.5437 9.35862 12.021 9.71396 11.7315C10.0693 11.442 10.5921 11.4954 10.8815 11.8507C10.9918 11.986 11.1136 12.1064 11.2443 12.2116C11.1534 12.3533 11.0759 12.5066 11.0142 12.6705C10.9653 12.8003 10.8833 12.9198 10.7623 13.0182C10.407 13.3078 9.88422 13.2544 9.59473 12.8991Z" fill="#790000"/>
</svg>
