<svg width="18" height="18" viewBox="0 0 18 18" fill="none" xmlns="http://www.w3.org/2000/svg">
<g clip-path="url(#clip0_11_255)">
<path fill-rule="evenodd" clip-rule="evenodd" d="M13.6616 1.42133C13.3204 1.13749 13.274 0.630825 13.5577 0.289658C13.8416 -0.0515086 14.3483 -0.0979831 14.6894 0.185855C16.7109 1.86769 18 4.40679 18 7.24636C18 10.086 16.7109 12.625 14.6894 14.3069C14.3483 14.5907 13.8416 14.5443 13.5577 14.203C13.274 13.8619 13.3204 13.3552 13.6616 13.0715C15.3314 11.6822 16.3929 9.58899 16.3929 7.24636C16.3929 4.90375 15.3314 2.81055 13.6616 1.42133ZM11.1562 3.57619C10.7738 3.35097 10.6464 2.85839 10.8716 2.47598C11.0968 2.09357 11.5894 1.96615 11.9718 2.19137C13.7006 3.20952 14.8635 5.09206 14.8635 7.24711C14.8635 9.4031 13.6995 11.2863 11.9696 12.3042C11.587 12.5292 11.0945 12.4016 10.8695 12.0191C10.6444 11.6366 10.7721 11.144 11.1546 10.919C12.414 10.178 13.2564 8.81049 13.2564 7.24711C13.2564 5.68441 12.4148 4.31742 11.1562 3.57619ZM11.5714 7.24722C11.5714 5.82708 10.4202 4.6758 9 4.6758C7.57984 4.6758 6.42857 5.82708 6.42857 7.24722C6.42857 8.38677 7.16981 9.35317 8.19643 9.69061V17.1964C8.19643 17.6403 8.5562 18 9 18C9.4438 18 9.80357 17.6403 9.80357 17.1964V9.69061C10.8302 9.35317 11.5714 8.38677 11.5714 7.24722ZM7.12783 2.47598C6.90261 2.09357 6.41004 1.96615 6.02763 2.19137C4.29888 3.20952 3.13587 5.09206 3.13587 7.24711C3.13587 9.4031 4.29988 11.2863 6.02987 12.3042C6.41238 12.5292 6.9049 12.4016 7.12995 12.0191C7.35501 11.6366 7.22736 11.144 6.84485 10.919C5.58537 10.178 4.74301 8.81049 4.74301 7.24711C4.74301 5.68441 5.58465 4.31742 6.84321 3.57619C7.22562 3.35097 7.35305 2.85839 7.12783 2.47598ZM4.33841 1.42133C4.67959 1.13749 4.72605 0.630825 4.44222 0.289658C4.15839 -0.0515086 3.65171 -0.0979831 3.31055 0.185855C1.28902 1.86769 0 4.40679 0 7.24636C0 10.086 1.28902 12.625 3.31055 14.3069C3.65171 14.5907 4.15839 14.5443 4.44222 14.203C4.72605 13.8619 4.67959 13.3552 4.33841 13.0715C2.66862 11.6822 1.60714 9.58899 1.60714 7.24636C1.60714 4.90375 2.66862 2.81055 4.33841 1.42133Z" fill="#790000"/>
</g>
<defs>
<clipPath id="clip0_11_255">
<rect width="18" height="18" fill="white"/>
</clipPath>
</defs>
</svg>
